<svg xmlns="http://www.w3.org/2000/svg" viewBox="0 0 64 64" shape-rendering="crispEdges">
  <!-- Background -->
  <rect width="64" height="64" fill="#1a1a2e"/>
  <!-- Shield body -->
  <rect x="12" y="6" width="40" height="44" fill="#8B4513"/>
  <rect x="14" y="8" width="36" height="40" fill="#a0522d"/>
  <!-- Shield top curve -->
  <rect x="16" y="4" width="32" height="6" fill="#8B4513"/>
  <rect x="18" y="6" width="28" height="4" fill="#a0522d"/>
  <!-- Shield bottom point -->
  <rect x="22" y="48" width="20" height="8" fill="#8B4513"/>
  <rect x="24" y="50" width="16" height="4" fill="#a0522d"/>
  <!-- Dragon scale pattern -->
  <rect x="20" y="14" width="24" height="6" fill="#ff6347" opacity="0.6"/>
  <rect x="18" y="20" width="28" height="6" fill="#ff4500" opacity="0.5"/>
  <rect x="20" y="26" width="24" height="6" fill="#ff6347" opacity="0.6"/>
  <rect x="18" y="32" width="28" height="6" fill="#ff4500" opacity="0.5"/>
  <rect x="22" y="38" width="20" height="6" fill="#ff6347" opacity="0.6"/>
  <!-- Scale details -->
  <rect x="22" y="16" width="4" height="2" fill="#ffa07a" opacity="0.4"/>
  <rect x="30" y="16" width="4" height="2" fill="#ffa07a" opacity="0.4"/>
  <rect x="38" y="16" width="4" height="2" fill="#ffa07a" opacity="0.4"/>
  <rect x="22" y="28" width="4" height="2" fill="#ffa07a" opacity="0.4"/>
  <rect x="30" y="28" width="4" height="2" fill="#ffa07a" opacity="0.4"/>
  <rect x="38" y="28" width="4" height="2" fill="#ffa07a" opacity="0.4"/>
  <!-- Border trim -->
  <rect x="12" y="6" width="4" height="44" fill="#ffd700"/>
  <rect x="48" y="6" width="4" height="44" fill="#ffd700"/>
  <rect x="16" y="4" width="32" height="4" fill="#ffd700"/>
  <rect x="22" y="48" width="20" height="2" fill="#ffd700"/>
</svg>
